<svg width="1142" height="173" viewBox="0 0 1142 173" fill="none" xmlns="http://www.w3.org/2000/svg">
<rect width="1142" height="173" rx="10" fill="url(#paint0_linear_161_9175)"/>
<path d="M54.426 56.802C50.656 56.802 48.498 59.532 48.498 63.64C48.498 67.878 50.942 70.192 54.452 70.192C57.754 70.192 59.756 68.372 59.756 65.33V65.252H54.01V62.314H62.85V73H60.042L59.834 70.816C58.794 72.272 56.636 73.286 54.062 73.286C48.732 73.286 45.014 69.412 45.014 63.562C45.014 57.79 48.784 53.682 54.504 53.682C58.846 53.682 62.2 56.204 62.746 60.078H59.236C58.638 57.842 56.714 56.802 54.426 56.802ZM71.7219 73.338C67.8999 73.338 65.2219 70.556 65.2219 66.578C65.2219 62.548 67.8479 59.766 71.6179 59.766C75.4659 59.766 77.9099 62.34 77.9099 66.344V67.306L68.2379 67.332C68.4719 69.594 69.6679 70.738 71.7739 70.738C73.5159 70.738 74.6599 70.062 75.0239 68.84H77.9619C77.4159 71.648 75.0759 73.338 71.7219 73.338ZM71.6439 62.366C69.7719 62.366 68.6279 63.38 68.3159 65.304H74.7639C74.7639 63.536 73.5419 62.366 71.6439 62.366ZM84.6896 73H81.5176V62.808H79.0476V60.156H81.5176V56.152H84.6896V60.156H87.1856V62.808H84.6896V73ZM99.9613 53.994V73H96.6333V53.994H99.9613ZM106.878 73H103.706V60.156H106.644L106.904 61.82C107.71 60.52 109.27 59.766 111.012 59.766C114.236 59.766 115.9 61.768 115.9 65.096V73H112.728V65.85C112.728 63.692 111.662 62.652 110.024 62.652C108.074 62.652 106.878 64.004 106.878 66.084V73ZM122.403 73L117.307 60.156H120.687L122.923 66.058C123.469 67.592 123.911 68.918 124.067 69.62C124.249 68.814 124.717 67.462 125.263 66.058L127.603 60.156H130.879L125.523 73H122.403ZM131.314 66.552C131.314 62.548 134.2 59.792 138.178 59.792C142.156 59.792 145.042 62.548 145.042 66.552C145.042 70.556 142.156 73.312 138.178 73.312C134.2 73.312 131.314 70.556 131.314 66.552ZM134.486 66.552C134.486 68.892 135.994 70.478 138.178 70.478C140.362 70.478 141.87 68.892 141.87 66.552C141.87 64.212 140.362 62.626 138.178 62.626C135.994 62.626 134.486 64.212 134.486 66.552ZM150.754 73H147.608V53.656H150.754V73ZM157.721 73L152.625 60.156H156.005L158.241 66.058C158.787 67.592 159.229 68.918 159.385 69.62C159.567 68.814 160.035 67.462 160.581 66.058L162.921 60.156H166.197L160.841 73H157.721ZM173.132 73.338C169.31 73.338 166.632 70.556 166.632 66.578C166.632 62.548 169.258 59.766 173.028 59.766C176.876 59.766 179.32 62.34 179.32 66.344V67.306L169.648 67.332C169.882 69.594 171.078 70.738 173.184 70.738C174.926 70.738 176.07 70.062 176.434 68.84H179.372C178.826 71.648 176.486 73.338 173.132 73.338ZM173.054 62.366C171.182 62.366 170.038 63.38 169.726 65.304H176.174C176.174 63.536 174.952 62.366 173.054 62.366ZM187.137 73.338C183.419 73.338 181.105 70.608 181.105 66.63C181.105 62.626 183.445 59.766 187.319 59.766C189.113 59.766 190.699 60.52 191.505 61.794V53.656H194.651V73H191.739L191.531 70.998C190.751 72.48 189.087 73.338 187.137 73.338ZM187.839 70.426C190.049 70.426 191.479 68.84 191.479 66.526C191.479 64.212 190.049 62.6 187.839 62.6C185.629 62.6 184.277 64.238 184.277 66.526C184.277 68.814 185.629 70.426 187.839 70.426ZM206.55 57.582C205.458 57.582 204.6 56.724 204.6 55.658C204.6 54.592 205.458 53.76 206.55 53.76C207.59 53.76 208.448 54.592 208.448 55.658C208.448 56.724 207.59 57.582 206.55 57.582ZM204.964 73V60.156H208.136V73H204.964ZM214.585 73H211.413V60.156H214.351L214.611 61.82C215.417 60.52 216.977 59.766 218.719 59.766C221.943 59.766 223.607 61.768 223.607 65.096V73H220.435V65.85C220.435 63.692 219.369 62.652 217.731 62.652C215.781 62.652 214.585 64.004 214.585 66.084V73ZM237.528 53.994V73H234.2V53.994H237.528ZM244.445 73H241.273V60.156H244.185L244.445 61.664C245.095 60.598 246.395 59.766 248.241 59.766C250.191 59.766 251.543 60.728 252.219 62.21C252.869 60.728 254.377 59.766 256.327 59.766C259.447 59.766 261.163 61.638 261.163 64.602V73H258.017V65.434C258.017 63.588 257.029 62.626 255.521 62.626C253.987 62.626 252.817 63.614 252.817 65.72V73H249.645V65.408C249.645 63.614 248.683 62.652 247.175 62.652C245.667 62.652 244.445 63.64 244.445 65.72V73ZM263.523 66.552C263.523 62.548 266.409 59.792 270.387 59.792C274.365 59.792 277.251 62.548 277.251 66.552C277.251 70.556 274.365 73.312 270.387 73.312C266.409 73.312 263.523 70.556 263.523 66.552ZM266.695 66.552C266.695 68.892 268.203 70.478 270.387 70.478C272.571 70.478 274.079 68.892 274.079 66.552C274.079 64.212 272.571 62.626 270.387 62.626C268.203 62.626 266.695 64.212 266.695 66.552ZM282.856 56.178C282.856 58.362 281.4 60.052 279.32 60.312V59.064C280.438 58.856 281.244 58.154 281.244 57.244C281.036 57.322 280.802 57.374 280.516 57.374C279.58 57.374 278.826 56.724 278.826 55.58C278.826 54.436 279.606 53.63 280.75 53.63C281.972 53.63 282.856 54.618 282.856 56.178ZM283.754 69.1H286.77C286.796 70.218 287.628 70.92 289.084 70.92C290.566 70.92 291.372 70.322 291.372 69.386C291.372 68.736 291.034 68.268 289.89 68.008L287.576 67.462C285.262 66.942 284.144 65.85 284.144 63.796C284.144 61.274 286.276 59.766 289.24 59.766C292.126 59.766 294.076 61.43 294.102 63.926H291.086C291.06 62.834 290.332 62.132 289.11 62.132C287.862 62.132 287.134 62.704 287.134 63.666C287.134 64.394 287.706 64.862 288.798 65.122L291.112 65.668C293.27 66.162 294.362 67.15 294.362 69.126C294.362 71.726 292.152 73.338 288.98 73.338C285.782 73.338 283.754 71.622 283.754 69.1ZM305.89 73H302.432L309.296 53.994H312.702L319.566 73H316.056L314.522 68.606H307.424L305.89 73ZM310.57 59.662L308.412 65.798H313.56L311.376 59.662C311.22 59.168 311.038 58.596 310.986 58.206C310.908 58.57 310.752 59.142 310.57 59.662ZM320.398 66.292C320.398 62.548 322.842 59.74 326.508 59.74C328.432 59.74 329.94 60.546 330.694 61.924L330.876 60.156H333.814V72.35C333.814 76.64 331.24 79.318 327.08 79.318C323.388 79.318 320.866 77.212 320.476 73.78H323.648C323.856 75.444 325.13 76.432 327.08 76.432C329.264 76.432 330.668 75.054 330.668 72.922V70.79C329.862 71.986 328.276 72.74 326.43 72.74C322.79 72.74 320.398 70.01 320.398 66.292ZM323.596 66.214C323.596 68.372 324.974 69.984 327.054 69.984C329.238 69.984 330.59 68.45 330.59 66.214C330.59 64.03 329.264 62.522 327.054 62.522C324.948 62.522 323.596 64.108 323.596 66.214ZM345.157 60.104V63.042H343.987C341.699 63.042 340.269 64.264 340.269 66.76V73H337.097V60.182H340.087L340.269 62.054C340.815 60.78 342.037 59.922 343.753 59.922C344.195 59.922 344.637 59.974 345.157 60.104ZM348.89 57.582C347.798 57.582 346.94 56.724 346.94 55.658C346.94 54.592 347.798 53.76 348.89 53.76C349.93 53.76 350.788 54.592 350.788 55.658C350.788 56.724 349.93 57.582 348.89 57.582ZM347.304 73V60.156H350.476V73H347.304ZM352.999 66.552C352.999 62.574 355.625 59.766 359.421 59.766C362.931 59.766 365.323 61.716 365.661 64.81H362.489C362.125 63.354 361.059 62.6 359.551 62.6C357.523 62.6 356.171 64.134 356.171 66.552C356.171 68.97 357.419 70.478 359.447 70.478C361.033 70.478 362.151 69.698 362.489 68.294H365.687C365.297 71.284 362.801 73.338 359.447 73.338C355.547 73.338 352.999 70.634 352.999 66.552ZM376.758 60.156H379.93V73H376.992L376.758 71.284C375.978 72.506 374.314 73.338 372.598 73.338C369.634 73.338 367.892 71.336 367.892 68.19V60.156H371.064V67.072C371.064 69.516 372.026 70.504 373.794 70.504C375.796 70.504 376.758 69.334 376.758 66.89V60.156ZM386.404 73H383.258V53.656H386.404V73ZM394.1 73H390.928V62.808H388.458V60.156H390.928V56.152H394.1V60.156H396.596V62.808H394.1V73ZM407.278 60.156H410.45V73H407.512L407.278 71.284C406.498 72.506 404.834 73.338 403.118 73.338C400.154 73.338 398.412 71.336 398.412 68.19V60.156H401.584V67.072C401.584 69.516 402.546 70.504 404.314 70.504C406.316 70.504 407.278 69.334 407.278 66.89V60.156ZM421.786 60.104V63.042H420.616C418.328 63.042 416.898 64.264 416.898 66.76V73H413.726V60.182H416.716L416.898 62.054C417.444 60.78 418.666 59.922 420.382 59.922C420.824 59.922 421.266 59.974 421.786 60.104ZM427.247 73.338C424.517 73.338 422.853 71.752 422.853 69.334C422.853 66.968 424.569 65.486 427.611 65.252L431.459 64.966V64.68C431.459 62.938 430.419 62.236 428.807 62.236C426.935 62.236 425.895 63.016 425.895 64.368H423.191C423.191 61.586 425.479 59.766 428.963 59.766C432.421 59.766 434.553 61.638 434.553 65.2V73H431.771L431.537 71.102C430.991 72.428 429.249 73.338 427.247 73.338ZM428.287 70.946C430.237 70.946 431.485 69.776 431.485 67.8V67.124L428.807 67.332C426.831 67.514 426.077 68.164 426.077 69.204C426.077 70.374 426.857 70.946 428.287 70.946ZM440.867 73H437.721V53.656H440.867V73ZM462.07 65.226H454.998V73H451.67V53.994H463.422V57.062H454.998V62.236H462.07V65.226ZM473.877 60.156H477.049V73H474.111L473.877 71.284C473.097 72.506 471.433 73.338 469.717 73.338C466.753 73.338 465.011 71.336 465.011 68.19V60.156H468.183V67.072C468.183 69.516 469.145 70.504 470.913 70.504C472.915 70.504 473.877 69.334 473.877 66.89V60.156ZM484.694 73H481.522V62.808H479.052V60.156H481.522V56.152H484.694V60.156H487.19V62.808H484.694V73ZM497.871 60.156H501.043V73H498.105L497.871 71.284C497.091 72.506 495.427 73.338 493.711 73.338C490.747 73.338 489.005 71.336 489.005 68.19V60.156H492.177V67.072C492.177 69.516 493.139 70.504 494.907 70.504C496.909 70.504 497.871 69.334 497.871 66.89V60.156ZM512.38 60.104V63.042H511.21C508.922 63.042 507.492 64.264 507.492 66.76V73H504.32V60.182H507.31L507.492 62.054C508.038 60.78 509.26 59.922 510.976 59.922C511.418 59.922 511.86 59.974 512.38 60.104ZM519.841 73.338C516.019 73.338 513.341 70.556 513.341 66.578C513.341 62.548 515.967 59.766 519.737 59.766C523.585 59.766 526.029 62.34 526.029 66.344V67.306L516.357 67.332C516.591 69.594 517.787 70.738 519.893 70.738C521.635 70.738 522.779 70.062 523.143 68.84H526.081C525.535 71.648 523.195 73.338 519.841 73.338ZM519.763 62.366C517.891 62.366 516.747 63.38 516.435 65.304H522.883C522.883 63.536 521.661 62.366 519.763 62.366Z" fill="black"/>
<path d="M49.84 101.872H46.912V106H45.344V94.432H49.84C52.112 94.432 53.568 95.92 53.568 98.144C53.568 100.304 52.096 101.872 49.84 101.872ZM49.568 95.84H46.912V100.464H49.504C51.056 100.464 51.92 99.552 51.92 98.128C51.92 96.672 51.04 95.84 49.568 95.84ZM57.0635 106.192C55.3835 106.192 54.3915 105.248 54.3915 103.824C54.3915 102.384 55.4635 101.488 57.3035 101.344L59.7675 101.152V100.928C59.7675 99.616 58.9835 99.152 57.9275 99.152C56.6635 99.152 55.9435 99.712 55.9435 100.656H54.6315C54.6315 99.024 55.9755 97.952 57.9915 97.952C59.9275 97.952 61.2395 98.976 61.2395 101.088V106H59.9595L59.7995 104.736C59.3995 105.632 58.3275 106.192 57.0635 106.192ZM57.4955 105.024C58.9195 105.024 59.7835 104.096 59.7835 102.624V102.208L57.7835 102.368C56.4555 102.496 55.9115 103.008 55.9115 103.776C55.9115 104.608 56.5195 105.024 57.4955 105.024ZM67.8024 98.112V99.488H67.1304C65.7064 99.488 64.8264 100.352 64.8264 101.856V106H63.3224V98.192H64.7304L64.8264 99.376C65.1464 98.56 65.9304 98.016 67.0024 98.016C67.2744 98.016 67.4984 98.048 67.8024 98.112ZM71.7335 106H70.2295V99.44H68.6935V98.176H70.2295V95.728H71.7335V98.176H73.2695V99.44H71.7335V106ZM76.1233 106H74.6193V98.176H75.9793L76.1393 99.376C76.6353 98.48 77.6273 97.952 78.7313 97.952C80.7953 97.952 81.7393 99.216 81.7393 101.216V106H80.2353V101.552C80.2353 99.968 79.4993 99.328 78.3473 99.328C76.9393 99.328 76.1233 100.336 76.1233 101.856V106ZM87.1984 106.192C84.8944 106.192 83.3104 104.528 83.3104 102.096C83.3104 99.648 84.8624 97.952 87.1344 97.952C89.3584 97.952 90.8144 99.488 90.8144 101.808V102.368L84.7664 102.384C84.8784 104.032 85.7424 104.944 87.2304 104.944C88.3984 104.944 89.1664 104.464 89.4224 103.568H90.8304C90.4464 105.248 89.1344 106.192 87.1984 106.192ZM87.1344 99.216C85.8224 99.216 84.9904 100 84.7984 101.376H89.3104C89.3104 100.08 88.4624 99.216 87.1344 99.216ZM96.9743 98.112V99.488H96.3023C94.8783 99.488 93.9983 100.352 93.9983 101.856V106H92.4943V98.192H93.9023L93.9983 99.376C94.3183 98.56 95.1023 98.016 96.1743 98.016C96.4463 98.016 96.6703 98.048 96.9743 98.112ZM104.44 106L101.88 98.176H103.432L104.728 102.24C104.904 102.816 105.064 103.408 105.208 104.096C105.336 103.408 105.544 102.752 105.72 102.24L107.032 98.176H108.568L109.864 102.24C109.992 102.624 110.248 103.536 110.376 104.096C110.504 103.472 110.648 102.928 110.872 102.24L112.184 98.176H113.752L111.08 106H109.656L108.296 101.808C108.04 101.024 107.88 100.416 107.8 99.984C107.72 100.368 107.576 100.88 107.288 101.824L105.928 106H104.44ZM115.777 96.32C115.233 96.32 114.785 95.872 114.785 95.328C114.785 94.768 115.233 94.336 115.777 94.336C116.321 94.336 116.769 94.768 116.769 95.328C116.769 95.872 116.321 96.32 115.777 96.32ZM115.041 106V98.176H116.545V106H115.041ZM120.937 106H119.433V99.44H117.897V98.176H119.433V95.728H120.937V98.176H122.473V99.44H120.937V106ZM125.326 105.984H123.822V94.224H125.326V99.376C125.822 98.528 126.766 97.952 127.982 97.952C129.982 97.952 130.942 99.216 130.942 101.216V106H129.438V101.552C129.438 99.968 128.686 99.328 127.566 99.328C126.11 99.328 125.326 100.384 125.326 101.728V105.984ZM142.809 98.176H144.297V106H142.953L142.793 104.816C142.345 105.632 141.305 106.192 140.153 106.192C138.329 106.192 137.305 104.96 137.305 103.04V98.176H138.809V102.544C138.809 104.224 139.529 104.864 140.681 104.864C142.057 104.864 142.809 103.984 142.809 102.304V98.176ZM145.682 103.728H147.122C147.122 104.528 147.73 105.008 148.722 105.008C149.778 105.008 150.386 104.576 150.386 103.856C150.386 103.328 150.13 103.008 149.314 102.8L147.938 102.48C146.546 102.144 145.89 101.456 145.89 100.304C145.89 98.864 147.106 97.952 148.834 97.952C150.546 97.952 151.666 98.912 151.698 100.4H150.258C150.226 99.616 149.698 99.12 148.786 99.12C147.842 99.12 147.314 99.536 147.314 100.256C147.314 100.784 147.698 101.136 148.466 101.328L149.842 101.664C151.17 101.984 151.826 102.592 151.826 103.76C151.826 105.248 150.546 106.192 148.69 106.192C146.85 106.192 145.682 105.216 145.682 103.728ZM155.657 105.376C155.657 106.528 154.793 107.488 153.657 107.632V106.96C154.312 106.848 154.777 106.416 154.777 105.92C154.664 105.984 154.537 106.016 154.345 106.016C153.817 106.016 153.368 105.632 153.368 105.04C153.368 104.4 153.801 103.936 154.441 103.936C155.113 103.936 155.657 104.496 155.657 105.376ZM162.949 96.32C162.389 96.32 161.957 95.872 161.957 95.328C161.957 94.768 162.389 94.336 162.949 94.336C163.477 94.336 163.941 94.768 163.941 95.328C163.941 95.872 163.477 96.32 162.949 96.32ZM160.213 109.552L160.469 108.192C160.773 108.272 160.949 108.304 161.189 108.304C161.909 108.304 162.197 107.888 162.197 107.008V98.176H163.701V107.152C163.701 108.72 162.837 109.696 161.317 109.696C160.917 109.696 160.661 109.68 160.213 109.552ZM165.373 102.08C165.373 99.664 167.101 97.968 169.453 97.968C171.789 97.968 173.517 99.664 173.517 102.08C173.517 104.496 171.789 106.192 169.453 106.192C167.101 106.192 165.373 104.496 165.373 102.08ZM166.893 102.08C166.893 103.712 167.933 104.848 169.453 104.848C170.957 104.848 172.013 103.712 172.013 102.08C172.013 100.448 170.957 99.312 169.453 99.312C167.933 99.312 166.893 100.448 166.893 102.08ZM175.918 96.32C175.374 96.32 174.926 95.872 174.926 95.328C174.926 94.768 175.374 94.336 175.918 94.336C176.462 94.336 176.91 94.768 176.91 95.328C176.91 95.872 176.462 96.32 175.918 96.32ZM175.182 106V98.176H176.686V106H175.182ZM180.373 106H178.869V98.176H180.229L180.389 99.376C180.885 98.48 181.877 97.952 182.981 97.952C185.045 97.952 185.989 99.216 185.989 101.216V106H184.485V101.552C184.485 99.968 183.749 99.328 182.597 99.328C181.189 99.328 180.373 100.336 180.373 101.856V106ZM194.735 106.192C193.055 106.192 192.063 105.248 192.063 103.824C192.063 102.384 193.135 101.488 194.975 101.344L197.439 101.152V100.928C197.439 99.616 196.655 99.152 195.599 99.152C194.335 99.152 193.615 99.712 193.615 100.656H192.303C192.303 99.024 193.647 97.952 195.663 97.952C197.599 97.952 198.911 98.976 198.911 101.088V106H197.631L197.471 104.736C197.071 105.632 195.999 106.192 194.735 106.192ZM195.167 105.024C196.591 105.024 197.455 104.096 197.455 102.624V102.208L195.455 102.368C194.127 102.496 193.583 103.008 193.583 103.776C193.583 104.608 194.191 105.024 195.167 105.024ZM205.369 109.504V98.176H206.729L206.841 99.584C207.369 98.512 208.425 97.952 209.673 97.952C211.913 97.952 213.305 99.632 213.305 102.032C213.305 104.416 211.993 106.208 209.673 106.208C208.425 106.208 207.385 105.68 206.873 104.72V109.504H205.369ZM206.889 102.096C206.889 103.696 207.817 104.848 209.353 104.848C210.889 104.848 211.801 103.696 211.801 102.096C211.801 100.48 210.889 99.328 209.353 99.328C207.817 99.328 206.889 100.464 206.889 102.096ZM219.443 98.112V99.488H218.771C217.347 99.488 216.467 100.352 216.467 101.856V106H214.963V98.192H216.371L216.467 99.376C216.787 98.56 217.571 98.016 218.643 98.016C218.915 98.016 219.139 98.048 219.443 98.112ZM220.06 102.08C220.06 99.664 221.788 97.968 224.14 97.968C226.476 97.968 228.204 99.664 228.204 102.08C228.204 104.496 226.476 106.192 224.14 106.192C221.788 106.192 220.06 104.496 220.06 102.08ZM221.58 102.08C221.58 103.712 222.62 104.848 224.14 104.848C225.644 104.848 226.7 103.712 226.7 102.08C226.7 100.448 225.644 99.312 224.14 99.312C222.62 99.312 221.58 100.448 221.58 102.08ZM229.373 101.888C229.373 99.68 230.797 97.952 233.069 97.952C234.333 97.952 235.309 98.528 235.805 99.504L235.917 98.176H237.261V105.68C237.261 108.144 235.741 109.712 233.341 109.712C231.213 109.712 229.757 108.512 229.469 106.528H230.973C231.165 107.68 232.029 108.352 233.341 108.352C234.813 108.352 235.773 107.392 235.773 105.904V104.336C235.261 105.248 234.237 105.792 233.005 105.792C230.781 105.792 229.373 104.08 229.373 101.888ZM230.877 101.856C230.877 103.328 231.789 104.48 233.261 104.48C234.781 104.48 235.709 103.392 235.709 101.856C235.709 100.352 234.813 99.264 233.277 99.264C231.773 99.264 230.877 100.416 230.877 101.856ZM243.912 98.112V99.488H243.24C241.816 99.488 240.936 100.352 240.936 101.856V106H239.432V98.192H240.84L240.936 99.376C241.256 98.56 242.04 98.016 243.112 98.016C243.384 98.016 243.608 98.048 243.912 98.112ZM247.298 106.192C245.618 106.192 244.626 105.248 244.626 103.824C244.626 102.384 245.698 101.488 247.538 101.344L250.002 101.152V100.928C250.002 99.616 249.218 99.152 248.162 99.152C246.898 99.152 246.178 99.712 246.178 100.656H244.866C244.866 99.024 246.21 97.952 248.226 97.952C250.162 97.952 251.474 98.976 251.474 101.088V106H250.194L250.034 104.736C249.634 105.632 248.562 106.192 247.298 106.192ZM247.73 105.024C249.154 105.024 250.018 104.096 250.018 102.624V102.208L248.018 102.368C246.69 102.496 246.146 103.008 246.146 103.776C246.146 104.608 246.754 105.024 247.73 105.024ZM255.061 106H253.557V98.176H254.901L255.045 99.2C255.445 98.464 256.277 97.952 257.381 97.952C258.597 97.952 259.461 98.56 259.861 99.536C260.229 98.56 261.173 97.952 262.389 97.952C264.181 97.952 265.269 99.072 265.269 100.88V106H263.797V101.248C263.797 100.016 263.109 99.312 262.053 99.312C260.917 99.312 260.165 100.112 260.165 101.36V106H258.677V101.232C258.677 100 258.005 99.328 256.949 99.328C255.813 99.328 255.061 100.112 255.061 101.36V106ZM269.61 105.376C269.61 106.528 268.746 107.488 267.61 107.632V106.96C268.266 106.848 268.73 106.416 268.73 105.92C268.618 105.984 268.49 106.016 268.298 106.016C267.77 106.016 267.322 105.632 267.322 105.04C267.322 104.4 267.754 103.936 268.394 103.936C269.066 103.936 269.61 104.496 269.61 105.376ZM275.639 102.08C275.639 99.664 277.367 97.968 279.719 97.968C282.055 97.968 283.783 99.664 283.783 102.08C283.783 104.496 282.055 106.192 279.719 106.192C277.367 106.192 275.639 104.496 275.639 102.08ZM277.159 102.08C277.159 103.712 278.199 104.848 279.719 104.848C281.223 104.848 282.279 103.712 282.279 102.08C282.279 100.448 281.223 99.312 279.719 99.312C278.199 99.312 277.159 100.448 277.159 102.08ZM289.927 98.112V99.488H289.255C287.831 99.488 286.951 100.352 286.951 101.856V106H285.447V98.192H286.855L286.951 99.376C287.271 98.56 288.055 98.016 289.127 98.016C289.399 98.016 289.623 98.048 289.927 98.112ZM299.089 106.192C296.785 106.192 295.201 104.528 295.201 102.096C295.201 99.648 296.753 97.952 299.025 97.952C301.249 97.952 302.705 99.488 302.705 101.808V102.368L296.657 102.384C296.769 104.032 297.633 104.944 299.121 104.944C300.289 104.944 301.057 104.464 301.313 103.568H302.721C302.337 105.248 301.025 106.192 299.089 106.192ZM299.025 99.216C297.713 99.216 296.881 100 296.689 101.376H301.201C301.201 100.08 300.353 99.216 299.025 99.216ZM304.888 106H303.16L305.896 102.128L303.176 98.176H304.92L306.904 101.088L308.84 98.176H310.552L307.832 102.128L310.504 106H308.76L306.808 103.136L304.888 106ZM311.807 109.504V98.176H313.167L313.279 99.584C313.807 98.512 314.863 97.952 316.111 97.952C318.351 97.952 319.743 99.632 319.743 102.032C319.743 104.416 318.431 106.208 316.111 106.208C314.863 106.208 313.823 105.68 313.311 104.72V109.504H311.807ZM313.327 102.096C313.327 103.696 314.255 104.848 315.791 104.848C317.327 104.848 318.239 103.696 318.239 102.096C318.239 100.48 317.327 99.328 315.791 99.328C314.255 99.328 313.327 100.464 313.327 102.096ZM322.937 106H321.433V94.224H322.937V106ZM324.639 102.08C324.639 99.664 326.367 97.968 328.719 97.968C331.055 97.968 332.783 99.664 332.783 102.08C332.783 104.496 331.055 106.192 328.719 106.192C326.367 106.192 324.639 104.496 324.639 102.08ZM326.159 102.08C326.159 103.712 327.199 104.848 328.719 104.848C330.223 104.848 331.279 103.712 331.279 102.08C331.279 100.448 330.223 99.312 328.719 99.312C327.199 99.312 326.159 100.448 326.159 102.08ZM338.927 98.112V99.488H338.255C336.831 99.488 335.951 100.352 335.951 101.856V106H334.447V98.192H335.855L335.951 99.376C336.271 98.56 337.055 98.016 338.127 98.016C338.399 98.016 338.623 98.048 338.927 98.112ZM343.433 106.192C341.129 106.192 339.545 104.528 339.545 102.096C339.545 99.648 341.097 97.952 343.369 97.952C345.593 97.952 347.049 99.488 347.049 101.808V102.368L341.001 102.384C341.113 104.032 341.977 104.944 343.465 104.944C344.633 104.944 345.401 104.464 345.657 103.568H347.065C346.681 105.248 345.369 106.192 343.433 106.192ZM343.369 99.216C342.057 99.216 341.225 100 341.033 101.376H345.545C345.545 100.08 344.697 99.216 343.369 99.216ZM352.592 102.08C352.592 99.664 354.32 97.968 356.672 97.968C359.008 97.968 360.736 99.664 360.736 102.08C360.736 104.496 359.008 106.192 356.672 106.192C354.32 106.192 352.592 104.496 352.592 102.08ZM354.112 102.08C354.112 103.712 355.152 104.848 356.672 104.848C358.176 104.848 359.232 103.712 359.232 102.08C359.232 100.448 358.176 99.312 356.672 99.312C355.152 99.312 354.112 100.448 354.112 102.08ZM362.401 109.504V98.176H363.761L363.873 99.584C364.401 98.512 365.457 97.952 366.705 97.952C368.945 97.952 370.337 99.632 370.337 102.032C370.337 104.416 369.025 106.208 366.705 106.208C365.457 106.208 364.417 105.68 363.905 104.72V109.504H362.401ZM363.921 102.096C363.921 103.696 364.849 104.848 366.385 104.848C367.921 104.848 368.833 103.696 368.833 102.096C368.833 100.48 367.921 99.328 366.385 99.328C364.849 99.328 363.921 100.464 363.921 102.096ZM371.994 109.504V98.176H373.354L373.466 99.584C373.994 98.512 375.05 97.952 376.298 97.952C378.538 97.952 379.93 99.632 379.93 102.032C379.93 104.416 378.618 106.208 376.298 106.208C375.05 106.208 374.01 105.68 373.498 104.72V109.504H371.994ZM373.514 102.096C373.514 103.696 374.442 104.848 375.978 104.848C377.514 104.848 378.426 103.696 378.426 102.096C378.426 100.48 377.514 99.328 375.978 99.328C374.442 99.328 373.514 100.464 373.514 102.096ZM381.076 102.08C381.076 99.664 382.804 97.968 385.156 97.968C387.492 97.968 389.22 99.664 389.22 102.08C389.22 104.496 387.492 106.192 385.156 106.192C382.804 106.192 381.076 104.496 381.076 102.08ZM382.596 102.08C382.596 103.712 383.636 104.848 385.156 104.848C386.66 104.848 387.716 103.712 387.716 102.08C387.716 100.448 386.66 99.312 385.156 99.312C383.636 99.312 382.596 100.448 382.596 102.08ZM395.365 98.112V99.488H394.693C393.269 99.488 392.389 100.352 392.389 101.856V106H390.885V98.192H392.293L392.389 99.376C392.709 98.56 393.493 98.016 394.565 98.016C394.837 98.016 395.061 98.048 395.365 98.112ZM399.296 106H397.792V99.44H396.256V98.176H397.792V95.728H399.296V98.176H400.832V99.44H399.296V106ZM407.59 98.176H409.078V106H407.734L407.574 104.816C407.126 105.632 406.086 106.192 404.934 106.192C403.11 106.192 402.086 104.96 402.086 103.04V98.176H403.59V102.544C403.59 104.224 404.31 104.864 405.462 104.864C406.838 104.864 407.59 103.984 407.59 102.304V98.176ZM412.764 106H411.26V98.176H412.62L412.78 99.376C413.276 98.48 414.268 97.952 415.372 97.952C417.436 97.952 418.38 99.216 418.38 101.216V106H416.876V101.552C416.876 99.968 416.14 99.328 414.988 99.328C413.58 99.328 412.764 100.336 412.764 101.856V106ZM421.199 96.32C420.655 96.32 420.207 95.872 420.207 95.328C420.207 94.768 420.655 94.336 421.199 94.336C421.743 94.336 422.191 94.768 422.191 95.328C422.191 95.872 421.743 96.32 421.199 96.32ZM420.463 106V98.176H421.967V106H420.463ZM426.359 106H424.855V99.44H423.319V98.176H424.855V95.728H426.359V98.176H427.895V99.44H426.359V106ZM429.98 96.32C429.436 96.32 428.988 95.872 428.988 95.328C428.988 94.768 429.436 94.336 429.98 94.336C430.524 94.336 430.972 94.768 430.972 95.328C430.972 95.872 430.524 96.32 429.98 96.32ZM429.244 106V98.176H430.748V106H429.244ZM436.308 106.192C434.004 106.192 432.42 104.528 432.42 102.096C432.42 99.648 433.972 97.952 436.244 97.952C438.468 97.952 439.924 99.488 439.924 101.808V102.368L433.876 102.384C433.988 104.032 434.852 104.944 436.34 104.944C437.508 104.944 438.276 104.464 438.532 103.568H439.94C439.556 105.248 438.244 106.192 436.308 106.192ZM436.244 99.216C434.932 99.216 434.1 100 433.908 101.376H438.42C438.42 100.08 437.572 99.216 436.244 99.216ZM440.964 103.728H442.404C442.404 104.528 443.012 105.008 444.004 105.008C445.06 105.008 445.668 104.576 445.668 103.856C445.668 103.328 445.412 103.008 444.596 102.8L443.22 102.48C441.828 102.144 441.172 101.456 441.172 100.304C441.172 98.864 442.388 97.952 444.116 97.952C445.828 97.952 446.948 98.912 446.98 100.4H445.54C445.508 99.616 444.98 99.12 444.068 99.12C443.124 99.12 442.596 99.536 442.596 100.256C442.596 100.784 442.98 101.136 443.748 101.328L445.124 101.664C446.452 101.984 447.108 102.592 447.108 103.76C447.108 105.248 445.828 106.192 443.972 106.192C442.132 106.192 440.964 105.216 440.964 103.728ZM455.359 106H453.855V99.44H452.319V98.176H453.855V95.728H455.359V98.176H456.895V99.44H455.359V106ZM457.654 102.08C457.654 99.664 459.382 97.968 461.734 97.968C464.07 97.968 465.798 99.664 465.798 102.08C465.798 104.496 464.07 106.192 461.734 106.192C459.382 106.192 457.654 104.496 457.654 102.08ZM459.174 102.08C459.174 103.712 460.214 104.848 461.734 104.848C463.238 104.848 464.294 103.712 464.294 102.08C464.294 100.448 463.238 99.312 461.734 99.312C460.214 99.312 459.174 100.448 459.174 102.08ZM471.342 101.888C471.342 99.68 472.766 97.952 475.038 97.952C476.302 97.952 477.278 98.528 477.774 99.504L477.886 98.176H479.23V105.68C479.23 108.144 477.71 109.712 475.31 109.712C473.182 109.712 471.726 108.512 471.438 106.528H472.942C473.134 107.68 473.998 108.352 475.31 108.352C476.782 108.352 477.742 107.392 477.742 105.904V104.336C477.23 105.248 476.206 105.792 474.974 105.792C472.75 105.792 471.342 104.08 471.342 101.888ZM472.846 101.856C472.846 103.328 473.758 104.48 475.23 104.48C476.75 104.48 477.678 103.392 477.678 101.856C477.678 100.352 476.782 99.264 475.246 99.264C473.742 99.264 472.846 100.416 472.846 101.856ZM485.881 98.112V99.488H485.209C483.785 99.488 482.905 100.352 482.905 101.856V106H481.401V98.192H482.809L482.905 99.376C483.225 98.56 484.009 98.016 485.081 98.016C485.353 98.016 485.577 98.048 485.881 98.112ZM486.498 102.08C486.498 99.664 488.226 97.968 490.578 97.968C492.914 97.968 494.642 99.664 494.642 102.08C494.642 104.496 492.914 106.192 490.578 106.192C488.226 106.192 486.498 104.496 486.498 102.08ZM488.018 102.08C488.018 103.712 489.058 104.848 490.578 104.848C492.082 104.848 493.138 103.712 493.138 102.08C493.138 100.448 492.082 99.312 490.578 99.312C489.058 99.312 488.018 100.448 488.018 102.08ZM497.627 106L495.067 98.176H496.619L497.915 102.24C498.091 102.816 498.251 103.408 498.395 104.096C498.523 103.408 498.731 102.752 498.907 102.24L500.219 98.176H501.755L503.051 102.24C503.179 102.624 503.435 103.536 503.563 104.096C503.691 103.472 503.835 102.928 504.059 102.24L505.371 98.176H506.939L504.267 106H502.843L501.483 101.808C501.227 101.024 501.067 100.416 500.987 99.984C500.907 100.368 500.763 100.88 500.475 101.824L499.115 106H497.627ZM514.284 106L511.724 98.176H513.276L514.572 102.24C514.748 102.816 514.908 103.408 515.052 104.096C515.18 103.408 515.388 102.752 515.564 102.24L516.876 98.176H518.412L519.708 102.24C519.836 102.624 520.092 103.536 520.22 104.096C520.348 103.472 520.492 102.928 520.716 102.24L522.028 98.176H523.596L520.924 106H519.5L518.14 101.808C517.884 101.024 517.724 100.416 517.644 99.984C517.564 100.368 517.42 100.88 517.132 101.824L515.772 106H514.284ZM525.621 96.32C525.077 96.32 524.629 95.872 524.629 95.328C524.629 94.768 525.077 94.336 525.621 94.336C526.165 94.336 526.613 94.768 526.613 95.328C526.613 95.872 526.165 96.32 525.621 96.32ZM524.885 106V98.176H526.389V106H524.885ZM530.78 106H529.276V99.44H527.74V98.176H529.276V95.728H530.78V98.176H532.316V99.44H530.78V106ZM535.17 105.984H533.666V94.224H535.17V99.376C535.666 98.528 536.61 97.952 537.826 97.952C539.826 97.952 540.786 99.216 540.786 101.216V106H539.282V101.552C539.282 99.968 538.53 99.328 537.41 99.328C535.954 99.328 535.17 100.384 535.17 101.728V105.984ZM549.452 106H547.948V99.44H546.412V98.176H547.948V95.728H549.452V98.176H550.988V99.44H549.452V106ZM553.842 105.984H552.338V94.224H553.842V99.376C554.338 98.528 555.282 97.952 556.498 97.952C558.498 97.952 559.458 99.216 559.458 101.216V106H557.954V101.552C557.954 99.968 557.202 99.328 556.082 99.328C554.626 99.328 553.842 100.384 553.842 101.728V105.984ZM564.917 106.192C562.613 106.192 561.029 104.528 561.029 102.096C561.029 99.648 562.581 97.952 564.853 97.952C567.077 97.952 568.533 99.488 568.533 101.808V102.368L562.485 102.384C562.597 104.032 563.461 104.944 564.949 104.944C566.117 104.944 566.885 104.464 567.141 103.568H568.549C568.165 105.248 566.853 106.192 564.917 106.192ZM564.853 99.216C563.541 99.216 562.709 100 562.517 101.376H567.029C567.029 100.08 566.181 99.216 564.853 99.216ZM576.38 106H574.844V94.432H576.38L580.364 104.16L584.348 94.432H585.916V106H584.38V101.424C584.38 99.264 584.396 98.48 584.476 97.664L581.1 106H579.628L576.268 97.696C576.348 98.256 576.38 99.44 576.38 101.056V106ZM589.09 96.32C588.546 96.32 588.098 95.872 588.098 95.328C588.098 94.768 588.546 94.336 589.09 94.336C589.634 94.336 590.082 94.768 590.082 95.328C590.082 95.872 589.634 96.32 589.09 96.32ZM588.354 106V98.176H589.858V106H588.354ZM593.545 106H592.041V98.176H593.401L593.561 99.376C594.057 98.48 595.049 97.952 596.153 97.952C598.217 97.952 599.161 99.216 599.161 101.216V106H597.657V101.552C597.657 99.968 596.921 99.328 595.769 99.328C594.361 99.328 593.545 100.336 593.545 101.856V106ZM601.98 96.32C601.436 96.32 600.988 95.872 600.988 95.328C600.988 94.768 601.436 94.336 601.98 94.336C602.524 94.336 602.972 94.768 602.972 95.328C602.972 95.872 602.524 96.32 601.98 96.32ZM601.244 106V98.176H602.748V106H601.244ZM604.292 103.728H605.732C605.732 104.528 606.34 105.008 607.332 105.008C608.388 105.008 608.996 104.576 608.996 103.856C608.996 103.328 608.74 103.008 607.924 102.8L606.548 102.48C605.156 102.144 604.5 101.456 604.5 100.304C604.5 98.864 605.716 97.952 607.444 97.952C609.156 97.952 610.276 98.912 610.308 100.4H608.868C608.836 99.616 608.308 99.12 607.396 99.12C606.452 99.12 605.924 99.536 605.924 100.256C605.924 100.784 606.308 101.136 607.076 101.328L608.452 101.664C609.78 101.984 610.436 102.592 610.436 103.76C610.436 105.248 609.156 106.192 607.3 106.192C605.46 106.192 604.292 105.216 604.292 103.728ZM614.312 106H612.808V99.44H611.272V98.176H612.808V95.728H614.312V98.176H615.848V99.44H614.312V106ZM621.677 98.112V99.488H621.005C619.581 99.488 618.701 100.352 618.701 101.856V106H617.197V98.192H618.605L618.701 99.376C619.021 98.56 619.805 98.016 620.877 98.016C621.149 98.016 621.373 98.048 621.677 98.112ZM622.57 109.504V108.272H623.578C624.298 108.272 624.874 108.16 625.242 107.168L625.514 106.416L622.362 98.176H623.946L626.218 104.48L628.538 98.176H630.09L626.394 107.76C625.866 109.104 625.082 109.664 623.882 109.664C623.386 109.664 622.97 109.6 622.57 109.504ZM635.154 102.08C635.154 99.664 636.882 97.968 639.234 97.968C641.57 97.968 643.298 99.664 643.298 102.08C643.298 104.496 641.57 106.192 639.234 106.192C636.882 106.192 635.154 104.496 635.154 102.08ZM636.674 102.08C636.674 103.712 637.714 104.848 639.234 104.848C640.738 104.848 641.794 103.712 641.794 102.08C641.794 100.448 640.738 99.312 639.234 99.312C637.714 99.312 636.674 100.448 636.674 102.08ZM644.084 98.176H645.236V96.928C645.236 95.008 646.292 94.224 647.716 94.224C648.004 94.224 648.34 94.24 648.644 94.288V95.584H647.972C646.996 95.584 646.74 96.08 646.74 96.928V98.176H648.596V99.44H646.74V106H645.236V99.44H644.084V98.176ZM45.824 125H44.192L48.416 113.432H50.16L54.4 125H52.752L51.712 122.12H46.848L45.824 125ZM49.088 115.928L47.328 120.76H51.248L49.472 115.928C49.392 115.704 49.312 115.432 49.28 115.256C49.248 115.416 49.168 115.688 49.088 115.928ZM55.0451 120.888C55.0451 118.68 56.4691 116.952 58.7411 116.952C60.0051 116.952 60.9811 117.528 61.4771 118.504L61.5891 117.176H62.9331V124.68C62.9331 127.144 61.4131 128.712 59.0131 128.712C56.8851 128.712 55.4291 127.512 55.1411 125.528H56.6451C56.8371 126.68 57.7011 127.352 59.0131 127.352C60.4851 127.352 61.4451 126.392 61.4451 124.904V123.336C60.9331 124.248 59.9091 124.792 58.6771 124.792C56.4531 124.792 55.0451 123.08 55.0451 120.888ZM56.5491 120.856C56.5491 122.328 57.4611 123.48 58.9331 123.48C60.4531 123.48 61.3811 122.392 61.3811 120.856C61.3811 119.352 60.4851 118.264 58.9491 118.264C57.4451 118.264 56.5491 119.416 56.5491 120.856ZM69.5836 117.112V118.488H68.9116C67.4876 118.488 66.6076 119.352 66.6076 120.856V125H65.1036V117.192H66.5116L66.6076 118.376C66.9276 117.56 67.7116 117.016 68.7836 117.016C69.0556 117.016 69.2796 117.048 69.5836 117.112ZM71.7303 115.32C71.1863 115.32 70.7383 114.872 70.7383 114.328C70.7383 113.768 71.1863 113.336 71.7303 113.336C72.2743 113.336 72.7223 113.768 72.7223 114.328C72.7223 114.872 72.2743 115.32 71.7303 115.32ZM70.9943 125V117.176H72.4983V125H70.9943ZM74.1698 121.096C74.1698 118.648 75.7218 116.952 78.0098 116.952C79.9778 116.952 81.3538 118.072 81.6258 119.816H80.1218C79.8658 118.824 79.0658 118.296 78.0578 118.296C76.6338 118.296 75.6578 119.384 75.6578 121.08C75.6578 122.76 76.5698 123.848 77.9938 123.848C79.0658 123.848 79.8658 123.288 80.1378 122.36H81.6418C81.3378 124.056 79.8818 125.192 77.9938 125.192C75.6898 125.192 74.1698 123.56 74.1698 121.096ZM88.6366 117.176H90.1246V125H88.7806L88.6206 123.816C88.1726 124.632 87.1326 125.192 85.9806 125.192C84.1566 125.192 83.1326 123.96 83.1326 122.04V117.176H84.6366V121.544C84.6366 123.224 85.3566 123.864 86.5086 123.864C87.8846 123.864 88.6366 122.984 88.6366 121.304V117.176ZM93.8428 125H92.3388V113.224H93.8428V125ZM98.2648 125H96.7608V118.44H95.2248V117.176H96.7608V114.728H98.2648V117.176H99.8008V118.44H98.2648V125ZM106.559 117.176H108.047V125H106.703L106.543 123.816C106.095 124.632 105.055 125.192 103.903 125.192C102.079 125.192 101.055 123.96 101.055 122.04V117.176H102.559V121.544C102.559 123.224 103.279 123.864 104.431 123.864C105.807 123.864 106.559 122.984 106.559 121.304V117.176ZM114.709 117.112V118.488H114.037C112.613 118.488 111.733 119.352 111.733 120.856V125H110.229V117.192H111.637L111.733 118.376C112.053 117.56 112.837 117.016 113.909 117.016C114.181 117.016 114.405 117.048 114.709 117.112ZM119.214 125.192C116.91 125.192 115.326 123.528 115.326 121.096C115.326 118.648 116.878 116.952 119.15 116.952C121.374 116.952 122.83 118.488 122.83 120.808V121.368L116.782 121.384C116.894 123.032 117.758 123.944 119.246 123.944C120.414 123.944 121.182 123.464 121.438 122.568H122.846C122.462 124.248 121.15 125.192 119.214 125.192ZM119.15 118.216C117.838 118.216 117.006 119 116.814 120.376H121.326C121.326 119.08 120.478 118.216 119.15 118.216ZM136.657 125L135.745 123.96C134.849 124.76 133.617 125.208 132.161 125.208C129.681 125.208 128.049 123.928 128.049 121.992C128.049 120.568 128.961 119.432 130.881 118.44C129.889 117.304 129.521 116.6 129.521 115.736C129.521 114.28 130.657 113.24 132.289 113.24C133.873 113.24 134.961 114.216 134.961 115.64C134.961 116.792 134.369 117.688 132.881 118.696L135.649 121.848C135.905 121.224 136.049 120.456 136.049 119.592H137.505C137.505 120.904 137.185 122.056 136.625 122.952L138.417 125H136.657ZM130.945 115.72C130.945 116.328 131.217 116.808 132.113 117.832C133.089 117.24 133.553 116.536 133.553 115.672C133.553 114.92 133.073 114.456 132.273 114.456C131.457 114.456 130.945 114.952 130.945 115.72ZM129.617 121.88C129.617 123.144 130.625 123.912 132.305 123.912C133.377 123.912 134.241 123.592 134.881 122.968L131.633 119.288C130.193 120.088 129.617 120.84 129.617 121.88ZM145.271 125H143.703V113.432H145.271L151.191 122.376V113.432H152.759V125H151.191L145.271 116.056V125ZM157.485 125.192C155.805 125.192 154.813 124.248 154.813 122.824C154.813 121.384 155.885 120.488 157.725 120.344L160.189 120.152V119.928C160.189 118.616 159.405 118.152 158.349 118.152C157.085 118.152 156.365 118.712 156.365 119.656H155.053C155.053 118.024 156.397 116.952 158.413 116.952C160.349 116.952 161.661 117.976 161.661 120.088V125H160.381L160.221 123.736C159.821 124.632 158.749 125.192 157.485 125.192ZM157.917 124.024C159.341 124.024 160.205 123.096 160.205 121.624V121.208L158.205 121.368C156.877 121.496 156.333 122.008 156.333 122.776C156.333 123.608 156.941 124.024 157.917 124.024ZM165.827 125H164.323V118.44H162.787V117.176H164.323V114.728H165.827V117.176H167.363V118.44H165.827V125ZM174.121 117.176H175.609V125H174.265L174.105 123.816C173.657 124.632 172.617 125.192 171.465 125.192C169.641 125.192 168.617 123.96 168.617 122.04V117.176H170.121V121.544C170.121 123.224 170.841 123.864 171.993 123.864C173.369 123.864 174.121 122.984 174.121 121.304V117.176ZM182.271 117.112V118.488H181.599C180.175 118.488 179.295 119.352 179.295 120.856V125H177.791V117.192H179.199L179.295 118.376C179.615 117.56 180.399 117.016 181.471 117.016C181.743 117.016 181.967 117.048 182.271 117.112ZM185.657 125.192C183.977 125.192 182.985 124.248 182.985 122.824C182.985 121.384 184.057 120.488 185.897 120.344L188.361 120.152V119.928C188.361 118.616 187.577 118.152 186.521 118.152C185.257 118.152 184.537 118.712 184.537 119.656H183.225C183.225 118.024 184.569 116.952 186.585 116.952C188.521 116.952 189.833 117.976 189.833 120.088V125H188.553L188.393 123.736C187.993 124.632 186.921 125.192 185.657 125.192ZM186.089 124.024C187.513 124.024 188.377 123.096 188.377 121.624V121.208L186.377 121.368C185.049 121.496 184.505 122.008 184.505 122.776C184.505 123.608 185.113 124.024 186.089 124.024ZM193.452 125H191.948V113.224H193.452V125ZM201.865 125H200.297V113.432H204.665C207.145 113.432 208.617 114.744 208.617 116.904C208.617 118.504 207.817 119.656 206.377 120.12L208.729 125H206.985L204.825 120.424H201.865V125ZM201.865 114.84V119.032H204.681C206.137 119.032 206.969 118.248 206.969 116.92C206.969 115.576 206.105 114.84 204.665 114.84H201.865ZM213.323 125.192C211.019 125.192 209.435 123.528 209.435 121.096C209.435 118.648 210.987 116.952 213.259 116.952C215.483 116.952 216.939 118.488 216.939 120.808V121.368L210.891 121.384C211.003 123.032 211.867 123.944 213.355 123.944C214.523 123.944 215.291 123.464 215.547 122.568H216.955C216.571 124.248 215.259 125.192 213.323 125.192ZM213.259 118.216C211.947 118.216 211.115 119 210.923 120.376H215.435C215.435 119.08 214.587 118.216 213.259 118.216ZM217.979 122.728H219.419C219.419 123.528 220.027 124.008 221.019 124.008C222.075 124.008 222.683 123.576 222.683 122.856C222.683 122.328 222.427 122.008 221.611 121.8L220.235 121.48C218.843 121.144 218.187 120.456 218.187 119.304C218.187 117.864 219.403 116.952 221.131 116.952C222.843 116.952 223.963 117.912 223.995 119.4H222.555C222.523 118.616 221.995 118.12 221.083 118.12C220.139 118.12 219.611 118.536 219.611 119.256C219.611 119.784 219.995 120.136 220.763 120.328L222.139 120.664C223.467 120.984 224.123 121.592 224.123 122.76C224.123 124.248 222.843 125.192 220.987 125.192C219.147 125.192 217.979 124.216 217.979 122.728ZM225.279 121.08C225.279 118.664 227.007 116.968 229.359 116.968C231.695 116.968 233.423 118.664 233.423 121.08C233.423 123.496 231.695 125.192 229.359 125.192C227.007 125.192 225.279 123.496 225.279 121.08ZM226.799 121.08C226.799 122.712 227.839 123.848 229.359 123.848C230.863 123.848 231.919 122.712 231.919 121.08C231.919 119.448 230.863 118.312 229.359 118.312C227.839 118.312 226.799 119.448 226.799 121.08ZM240.309 117.176H241.797V125H240.453L240.293 123.816C239.845 124.632 238.805 125.192 237.653 125.192C235.829 125.192 234.805 123.96 234.805 122.04V117.176H236.309V121.544C236.309 123.224 237.029 123.864 238.181 123.864C239.557 123.864 240.309 122.984 240.309 121.304V117.176ZM248.459 117.112V118.488H247.787C246.363 118.488 245.483 119.352 245.483 120.856V125H243.979V117.192H245.387L245.483 118.376C245.803 117.56 246.587 117.016 247.659 117.016C247.931 117.016 248.155 117.048 248.459 117.112ZM249.076 121.096C249.076 118.648 250.628 116.952 252.916 116.952C254.884 116.952 256.26 118.072 256.532 119.816H255.028C254.772 118.824 253.972 118.296 252.964 118.296C251.54 118.296 250.564 119.384 250.564 121.08C250.564 122.76 251.476 123.848 252.9 123.848C253.972 123.848 254.772 123.288 255.044 122.36H256.548C256.244 124.056 254.788 125.192 252.9 125.192C250.596 125.192 249.076 123.56 249.076 121.096ZM261.511 125.192C259.207 125.192 257.623 123.528 257.623 121.096C257.623 118.648 259.175 116.952 261.447 116.952C263.671 116.952 265.127 118.488 265.127 120.808V121.368L259.079 121.384C259.191 123.032 260.055 123.944 261.543 123.944C262.711 123.944 263.479 123.464 263.735 122.568H265.143C264.759 124.248 263.447 125.192 261.511 125.192ZM261.447 118.216C260.135 118.216 259.303 119 259.111 120.376H263.623C263.623 119.08 262.775 118.216 261.447 118.216ZM266.167 122.728H267.607C267.607 123.528 268.215 124.008 269.207 124.008C270.263 124.008 270.871 123.576 270.871 122.856C270.871 122.328 270.615 122.008 269.799 121.8L268.423 121.48C267.031 121.144 266.375 120.456 266.375 119.304C266.375 117.864 267.591 116.952 269.319 116.952C271.031 116.952 272.151 117.912 272.183 119.4H270.743C270.711 118.616 270.183 118.12 269.271 118.12C268.327 118.12 267.799 118.536 267.799 119.256C267.799 119.784 268.183 120.136 268.951 120.328L270.327 120.664C271.655 120.984 272.311 121.592 272.311 122.76C272.311 124.248 271.031 125.192 269.175 125.192C267.335 125.192 266.167 124.216 266.167 122.728ZM275.005 125.192C274.381 125.192 273.853 124.68 273.853 124.072C273.853 123.448 274.381 122.936 275.005 122.936C275.613 122.936 276.141 123.448 276.141 124.072C276.141 124.68 275.613 125.192 275.005 125.192Z" fill="#696969"/>
<rect x="929.255" y="54.5" width="163" height="64" rx="10" fill="#FF7700"/>
<path d="M975.495 92.692C972.087 92.692 969.879 90.324 969.879 86.66C969.879 83.028 972.167 80.612 975.591 80.612C978.359 80.612 980.423 82.228 980.823 84.74H978.663C978.263 83.38 977.095 82.58 975.543 82.58C973.383 82.58 972.023 84.148 972.023 86.644C972.023 89.124 973.399 90.724 975.543 90.724C977.127 90.724 978.343 89.892 978.727 88.596H980.855C980.407 91.06 978.263 92.692 975.495 92.692ZM981.94 88.532C981.94 86.068 983.716 84.372 986.164 84.372C988.612 84.372 990.388 86.068 990.388 88.532C990.388 90.996 988.612 92.692 986.164 92.692C983.716 92.692 981.94 90.996 981.94 88.532ZM983.892 88.532C983.892 89.972 984.82 90.948 986.164 90.948C987.508 90.948 988.436 89.972 988.436 88.532C988.436 87.092 987.508 86.116 986.164 86.116C984.82 86.116 983.892 87.092 983.892 88.532ZM993.887 92.5H991.935V84.596H993.743L993.903 85.62C994.399 84.82 995.359 84.356 996.431 84.356C998.415 84.356 999.439 85.588 999.439 87.636V92.5H997.487V88.1C997.487 86.772 996.831 86.132 995.823 86.132C994.623 86.132 993.887 86.964 993.887 88.244V92.5ZM1004.04 92.5H1002.09V86.228H1000.57V84.596H1002.09V82.132H1004.04V84.596H1005.58V86.228H1004.04V92.5ZM1009.1 92.708C1007.42 92.708 1006.4 91.732 1006.4 90.244C1006.4 88.788 1007.45 87.876 1009.32 87.732L1011.69 87.556V87.38C1011.69 86.308 1011.05 85.876 1010.06 85.876C1008.91 85.876 1008.27 86.356 1008.27 87.188H1006.6C1006.6 85.476 1008.01 84.356 1010.16 84.356C1012.28 84.356 1013.6 85.508 1013.6 87.7V92.5H1011.88L1011.74 91.332C1011.4 92.148 1010.33 92.708 1009.1 92.708ZM1009.74 91.236C1010.94 91.236 1011.71 90.516 1011.71 89.3V88.884L1010.06 89.012C1008.84 89.124 1008.38 89.524 1008.38 90.164C1008.38 90.884 1008.86 91.236 1009.74 91.236ZM1015.05 88.532C1015.05 86.084 1016.66 84.356 1019 84.356C1021.16 84.356 1022.63 85.556 1022.84 87.46H1020.89C1020.66 86.564 1020.01 86.1 1019.08 86.1C1017.83 86.1 1017 87.044 1017 88.532C1017 90.02 1017.77 90.948 1019.02 90.948C1019.99 90.948 1020.68 90.468 1020.89 89.604H1022.86C1022.62 91.444 1021.08 92.708 1019.02 92.708C1016.62 92.708 1015.05 91.044 1015.05 88.532ZM1027 92.5H1025.05V86.228H1023.53V84.596H1025.05V82.132H1027V84.596H1028.53V86.228H1027V92.5ZM1034.27 88.228V80.804H1036.32V88.1C1036.32 89.78 1037.23 90.708 1038.89 90.708C1040.56 90.708 1041.48 89.764 1041.48 88.1V80.804H1043.53V88.228C1043.53 90.964 1041.74 92.692 1038.89 92.692C1036.06 92.692 1034.27 90.98 1034.27 88.228ZM1045.05 90.1H1046.9C1046.92 90.788 1047.43 91.22 1048.33 91.22C1049.24 91.22 1049.73 90.852 1049.73 90.276C1049.73 89.876 1049.53 89.588 1048.82 89.428L1047.4 89.092C1045.97 88.772 1045.29 88.1 1045.29 86.836C1045.29 85.284 1046.6 84.356 1048.42 84.356C1050.2 84.356 1051.4 85.38 1051.41 86.916H1049.56C1049.54 86.244 1049.09 85.812 1048.34 85.812C1047.57 85.812 1047.13 86.164 1047.13 86.756C1047.13 87.204 1047.48 87.492 1048.15 87.652L1049.57 87.988C1050.9 88.292 1051.57 88.9 1051.57 90.116C1051.57 91.716 1050.21 92.708 1048.26 92.708C1046.29 92.708 1045.05 91.652 1045.05 90.1Z" fill="white"/>
<defs>
<linearGradient id="paint0_linear_161_9175" x1="0" y1="86.5" x2="1142" y2="86.5" gradientUnits="userSpaceOnUse">
<stop stop-color="#A1FFCE"/>
<stop offset="1" stop-color="#FAFFD1"/>
</linearGradient>
</defs>
</svg>
