<svg width="43" height="42" viewBox="0 0 43 42" fill="none" xmlns="http://www.w3.org/2000/svg">
<path d="M21.5227 3.62012C18.0854 3.62012 14.7254 4.63939 11.8674 6.54903C9.00939 8.45868 6.78186 11.1729 5.46647 14.3486C4.15108 17.5242 3.80692 21.0185 4.4775 24.3898C5.14808 27.761 6.80328 30.8577 9.2338 33.2882C11.6643 35.7187 14.761 37.3739 18.1322 38.0445C21.5034 38.7151 24.9978 38.3709 28.1734 37.0555C31.3491 35.7401 34.0633 33.5126 35.9729 30.6546C37.8826 27.7966 38.9019 24.4365 38.9019 20.9993C38.9019 18.717 38.4523 16.4571 37.579 14.3486C36.7056 12.24 35.4254 10.3242 33.8116 8.71035C32.1978 7.09655 30.282 5.81641 28.1734 4.94303C26.0649 4.06964 23.805 3.62012 21.5227 3.62012ZM18.0469 28.8199V13.1787L28.4744 20.9993L18.0469 28.8199Z" fill="#FF0000"/>
<path d="M18.0469 28.8199V13.1787L28.4744 20.9993L18.0469 28.8199Z" fill="white"/>
</svg>
